<mxfile host="app.diagrams.net" modified="2023-05-14T10:17:11.875Z" agent="Mozilla/5.0 (Windows NT 10.0; Win64; x64) AppleWebKit/537.36 (KHTML, like Gecko) Chrome/110.0.0.0 YaBrowser/23.3.3.719 Yowser/2.5 Safari/537.36" etag="IYA7VJZoYRpotoTUxw7j" version="21.3.0" type="device">
  <diagram name="Страница 1" id="HZR2qhCa8YkgNRcIJABW">
    <mxGraphModel dx="868" dy="480" grid="1" gridSize="10" guides="1" tooltips="1" connect="1" arrows="1" fold="1" page="1" pageScale="1" pageWidth="827" pageHeight="1169" math="0" shadow="0">
      <root>
        <mxCell id="0" />
        <mxCell id="1" parent="0" />
        <mxCell id="oF35NkQArcCpL5VbkBub-1" value="Event" style="swimlane;fontStyle=1;align=center;verticalAlign=top;childLayout=stackLayout;horizontal=1;startSize=26;horizontalStack=0;resizeParent=1;resizeParentMax=0;resizeLast=0;collapsible=1;marginBottom=0;whiteSpace=wrap;html=1;" vertex="1" parent="1">
          <mxGeometry x="49" y="180" width="210" height="208" as="geometry" />
        </mxCell>
        <mxCell id="oF35NkQArcCpL5VbkBub-2" value="+ id: Long&lt;br&gt;+&amp;nbsp;title:&amp;nbsp;String&lt;br&gt;+&amp;nbsp;description: String&lt;br&gt;+&amp;nbsp;imgUrl: Array&amp;lt;String&amp;gt;&lt;br&gt;+&amp;nbsp;tags: String&lt;br&gt;+&amp;nbsp;date: String&lt;br&gt;+&amp;nbsp;location: String&lt;br&gt;+&amp;nbsp;humanCount: Int&lt;br&gt;+&amp;nbsp;regStart: String&lt;br&gt;+&amp;nbsp;regEnd: String&lt;br&gt;+&amp;nbsp;organizers: String" style="text;strokeColor=none;fillColor=none;align=left;verticalAlign=top;spacingLeft=4;spacingRight=4;overflow=hidden;rotatable=0;points=[[0,0.5],[1,0.5]];portConstraint=eastwest;whiteSpace=wrap;html=1;" vertex="1" parent="oF35NkQArcCpL5VbkBub-1">
          <mxGeometry y="26" width="210" height="174" as="geometry" />
        </mxCell>
        <mxCell id="oF35NkQArcCpL5VbkBub-3" value="" style="line;strokeWidth=1;fillColor=none;align=left;verticalAlign=middle;spacingTop=-1;spacingLeft=3;spacingRight=3;rotatable=0;labelPosition=right;points=[];portConstraint=eastwest;strokeColor=inherit;" vertex="1" parent="oF35NkQArcCpL5VbkBub-1">
          <mxGeometry y="200" width="210" height="8" as="geometry" />
        </mxCell>
        <mxCell id="oF35NkQArcCpL5VbkBub-5" value="MyEvent" style="swimlane;fontStyle=1;align=center;verticalAlign=top;childLayout=stackLayout;horizontal=1;startSize=26;horizontalStack=0;resizeParent=1;resizeParentMax=0;resizeLast=0;collapsible=1;marginBottom=0;whiteSpace=wrap;html=1;" vertex="1" parent="1">
          <mxGeometry x="349" width="190" height="148" as="geometry" />
        </mxCell>
        <mxCell id="oF35NkQArcCpL5VbkBub-6" value="+ id: Long&lt;br&gt;+&amp;nbsp;eventId: Long&lt;br&gt;+&amp;nbsp;title: String&lt;br&gt;+&amp;nbsp;qrUid: String&lt;br&gt;+&amp;nbsp;tags: String&lt;br&gt;+&amp;nbsp;date: String&lt;br&gt;+&amp;nbsp;location: String" style="text;strokeColor=none;fillColor=none;align=left;verticalAlign=top;spacingLeft=4;spacingRight=4;overflow=hidden;rotatable=0;points=[[0,0.5],[1,0.5]];portConstraint=eastwest;whiteSpace=wrap;html=1;" vertex="1" parent="oF35NkQArcCpL5VbkBub-5">
          <mxGeometry y="26" width="190" height="114" as="geometry" />
        </mxCell>
        <mxCell id="oF35NkQArcCpL5VbkBub-7" value="" style="line;strokeWidth=1;fillColor=none;align=left;verticalAlign=middle;spacingTop=-1;spacingLeft=3;spacingRight=3;rotatable=0;labelPosition=right;points=[];portConstraint=eastwest;strokeColor=inherit;" vertex="1" parent="oF35NkQArcCpL5VbkBub-5">
          <mxGeometry y="140" width="190" height="8" as="geometry" />
        </mxCell>
        <mxCell id="oF35NkQArcCpL5VbkBub-9" value="Participant" style="swimlane;fontStyle=1;align=center;verticalAlign=top;childLayout=stackLayout;horizontal=1;startSize=26;horizontalStack=0;resizeParent=1;resizeParentMax=0;resizeLast=0;collapsible=1;marginBottom=0;whiteSpace=wrap;html=1;" vertex="1" parent="1">
          <mxGeometry x="519" y="250" width="200" height="138" as="geometry" />
        </mxCell>
        <mxCell id="oF35NkQArcCpL5VbkBub-10" value="+ eventId: Long&lt;br&gt;+ userName: String&lt;br&gt;+&amp;nbsp;studentGroup: String&lt;br&gt;+&amp;nbsp;presence: String&lt;br&gt;+ role: String&lt;br&gt;+&amp;nbsp;presenceNoted: String" style="text;strokeColor=none;fillColor=none;align=left;verticalAlign=top;spacingLeft=4;spacingRight=4;overflow=hidden;rotatable=0;points=[[0,0.5],[1,0.5]];portConstraint=eastwest;whiteSpace=wrap;html=1;" vertex="1" parent="oF35NkQArcCpL5VbkBub-9">
          <mxGeometry y="26" width="200" height="104" as="geometry" />
        </mxCell>
        <mxCell id="oF35NkQArcCpL5VbkBub-11" value="" style="line;strokeWidth=1;fillColor=none;align=left;verticalAlign=middle;spacingTop=-1;spacingLeft=3;spacingRight=3;rotatable=0;labelPosition=right;points=[];portConstraint=eastwest;strokeColor=inherit;" vertex="1" parent="oF35NkQArcCpL5VbkBub-9">
          <mxGeometry y="130" width="200" height="8" as="geometry" />
        </mxCell>
        <mxCell id="oF35NkQArcCpL5VbkBub-13" value="User" style="swimlane;fontStyle=1;align=center;verticalAlign=top;childLayout=stackLayout;horizontal=1;startSize=26;horizontalStack=0;resizeParent=1;resizeParentMax=0;resizeLast=0;collapsible=1;marginBottom=0;whiteSpace=wrap;html=1;" vertex="1" parent="1">
          <mxGeometry x="599" y="90" width="180" height="118" as="geometry" />
        </mxCell>
        <mxCell id="oF35NkQArcCpL5VbkBub-14" value="+ id: Long&lt;br&gt;+&amp;nbsp;userName: String&lt;br&gt;+&amp;nbsp;role: String&lt;br&gt;+ sdudentGroup: String&lt;br&gt;+&amp;nbsp;userImageURL: String" style="text;strokeColor=none;fillColor=none;align=left;verticalAlign=top;spacingLeft=4;spacingRight=4;overflow=hidden;rotatable=0;points=[[0,0.5],[1,0.5]];portConstraint=eastwest;whiteSpace=wrap;html=1;" vertex="1" parent="oF35NkQArcCpL5VbkBub-13">
          <mxGeometry y="26" width="180" height="84" as="geometry" />
        </mxCell>
        <mxCell id="oF35NkQArcCpL5VbkBub-15" value="" style="line;strokeWidth=1;fillColor=none;align=left;verticalAlign=middle;spacingTop=-1;spacingLeft=3;spacingRight=3;rotatable=0;labelPosition=right;points=[];portConstraint=eastwest;strokeColor=inherit;" vertex="1" parent="oF35NkQArcCpL5VbkBub-13">
          <mxGeometry y="110" width="180" height="8" as="geometry" />
        </mxCell>
        <mxCell id="oF35NkQArcCpL5VbkBub-17" value="" style="endArrow=diamondThin;endFill=0;endSize=24;html=1;rounded=0;exitX=0.805;exitY=-0.008;exitDx=0;exitDy=0;exitPerimeter=0;entryX=0;entryY=0.227;entryDx=0;entryDy=0;entryPerimeter=0;" edge="1" parent="1" source="oF35NkQArcCpL5VbkBub-1" target="oF35NkQArcCpL5VbkBub-6">
          <mxGeometry width="160" relative="1" as="geometry">
            <mxPoint x="409" y="270" as="sourcePoint" />
            <mxPoint x="569" y="270" as="targetPoint" />
            <Array as="points">
              <mxPoint x="218" y="52" />
            </Array>
          </mxGeometry>
        </mxCell>
        <mxCell id="oF35NkQArcCpL5VbkBub-18" value="" style="endArrow=diamondThin;endFill=0;endSize=24;html=1;rounded=0;" edge="1" parent="1">
          <mxGeometry width="160" relative="1" as="geometry">
            <mxPoint x="769" y="210" as="sourcePoint" />
            <mxPoint x="719" y="270" as="targetPoint" />
            <Array as="points">
              <mxPoint x="769" y="270" />
            </Array>
          </mxGeometry>
        </mxCell>
        <mxCell id="oF35NkQArcCpL5VbkBub-20" value="" style="ellipse;whiteSpace=wrap;html=1;aspect=fixed;" vertex="1" parent="1">
          <mxGeometry x="399" y="210" width="40" height="40" as="geometry" />
        </mxCell>
        <mxCell id="oF35NkQArcCpL5VbkBub-21" value="Serializable" style="text;html=1;strokeColor=none;fillColor=none;align=center;verticalAlign=middle;whiteSpace=wrap;rounded=0;" vertex="1" parent="1">
          <mxGeometry x="389" y="250" width="60" height="30" as="geometry" />
        </mxCell>
        <mxCell id="oF35NkQArcCpL5VbkBub-22" value="" style="endArrow=none;html=1;rounded=0;exitX=0;exitY=0.5;exitDx=0;exitDy=0;entryX=1;entryY=0.138;entryDx=0;entryDy=0;entryPerimeter=0;" edge="1" parent="1" source="oF35NkQArcCpL5VbkBub-20" target="oF35NkQArcCpL5VbkBub-2">
          <mxGeometry width="50" height="50" relative="1" as="geometry">
            <mxPoint x="339" y="360" as="sourcePoint" />
            <mxPoint x="389" y="310" as="targetPoint" />
          </mxGeometry>
        </mxCell>
        <mxCell id="oF35NkQArcCpL5VbkBub-23" value="" style="endArrow=none;html=1;rounded=0;entryX=0.5;entryY=0;entryDx=0;entryDy=0;" edge="1" parent="1" target="oF35NkQArcCpL5VbkBub-20">
          <mxGeometry width="50" height="50" relative="1" as="geometry">
            <mxPoint x="419" y="150" as="sourcePoint" />
            <mxPoint x="379" y="340" as="targetPoint" />
          </mxGeometry>
        </mxCell>
        <mxCell id="oF35NkQArcCpL5VbkBub-24" value="" style="endArrow=none;html=1;rounded=0;exitX=1;exitY=0.5;exitDx=0;exitDy=0;entryX=-0.003;entryY=0.169;entryDx=0;entryDy=0;entryPerimeter=0;" edge="1" parent="1" source="oF35NkQArcCpL5VbkBub-20" target="oF35NkQArcCpL5VbkBub-13">
          <mxGeometry width="50" height="50" relative="1" as="geometry">
            <mxPoint x="379" y="370" as="sourcePoint" />
            <mxPoint x="429" y="320" as="targetPoint" />
            <Array as="points">
              <mxPoint x="569" y="230" />
              <mxPoint x="569" y="110" />
            </Array>
          </mxGeometry>
        </mxCell>
        <mxCell id="oF35NkQArcCpL5VbkBub-25" value="" style="endArrow=diamondThin;endFill=0;endSize=24;html=1;rounded=0;exitX=1.001;exitY=0.546;exitDx=0;exitDy=0;exitPerimeter=0;" edge="1" parent="1" source="oF35NkQArcCpL5VbkBub-2">
          <mxGeometry width="160" relative="1" as="geometry">
            <mxPoint x="290" y="300" as="sourcePoint" />
            <mxPoint x="518" y="300" as="targetPoint" />
          </mxGeometry>
        </mxCell>
      </root>
    </mxGraphModel>
  </diagram>
</mxfile>
